PathFileType	4	(X/Y/Z)	/Users/niels/Desktop/University/Third Semester/Perception and Action/Exam/Gymnastics Motion Tracking/Code for Gym Tracking/Analyzed Data/Webcam_Backflip/id4_1_pure_Sports2D/id4_1_pure_Sports2D_px_person00.trc
DataRate	CameraRate	NumFrames	NumMarkers	Units	OrigDataRate	OrigDataStartFrame	OrigNumFrames
29.8125	29.8125	8	22	m	29.8125	100	160
Frame#	Time	Hip			RHip			RKnee			RAnkle			RBigToe			RSmallToe			RHeel			LHip			LKnee			LAnkle			LBigToe			LSmallToe			LHeel			Neck			Head			Nose			RShoulder			RElbow			RWrist			LShoulder			LElbow			LWrist		
		X1	Y1	Z1	X2	Y2	Z2	X3	Y3	Z3	X4	Y4	Z4	X5	Y5	Z5	X6	Y6	Z6	X7	Y7	Z7	X8	Y8	Z8	X9	Y9	Z9	X10	Y10	Z10	X11	Y11	Z11	X12	Y12	Z12	X13	Y13	Z13	X14	Y14	Z14	X15	Y15	Z15	X16	Y16	Z16	X17	Y17	Z17	X18	Y18	Z18	X19	Y19	Z19	X20	Y20	Z20	X21	Y21	Z21	X22	Y22	Z22
100	3.354297693920335	0.74318082829792	-0.6157225034096885	0.0	0.7440206350283831	-0.6144349302251251	0.0	0.7391264917736552	-0.7204399405017573	0.0	0.7168810983185877	-0.8135379770908296	0.0	0.7381236186565828	-0.8340134179610135	0.0	0.7366944349368743	-0.836826070044614	0.0	0.7074473721416611	-0.8294868783117342	0.0	0.7419511068831861	-0.6128782387299612	0.0	0.7374815022914896	-0.7209904622484422	0.0	0.7152066262794791	-0.8120517538339299	0.0	0.7396976360921723	-0.8345081815654887	0.0	0.7364278600780383	-0.8312169504014615	0.0	0.702524451238863	-0.8244792990384645	0.0	0.7402747355534648	-0.4710909234740781	0.0	0.7499936967251347	-0.39673597585549364	0.0	0.761199509057785	-0.4350415029756262	0.0	0.7355217716812228	-0.47496316248454434	0.0	0.7603142146513936	-0.40334109803316276	0.0	0.7767408894446186	-0.3406908232804565	0.0	0.7377412037803264	-0.47269743009269266	0.0	0.7665904370449961	-0.4084014714049344	0.0	0.781608450934379	-0.3484174150862816	0.0
101	3.3878406708595383	0.7427032977452399	-0.6047251501920328	0.0	0.7427256668289253	-0.6029721764593063	0.0	0.7389712898781907	-0.708154725460995	0.0	0.7163169963641427	-0.8022561894497341	0.0	0.7411562622315199	-0.8244545535682307	0.0	0.7391967261097696	-0.8265354317864967	0.0	0.7071492718435024	-0.8191495775714467	0.0	0.7426574148064221	-0.6018182981766701	0.0	0.7378896745717063	-0.7088375960187595	0.0	0.7154840146396818	-0.8004788236152965	0.0	0.7432300197619737	-0.8242638112463601	0.0	0.7409704401559212	-0.8197908503369321	0.0	0.7034744702535213	-0.8130358190597009	0.0	0.7407708854252806	-0.4607912945599884	0.0	0.7522779589876539	-0.38602876153289967	0.0	0.7617727087071605	-0.42455304766352936	0.0	0.7359111836183736	-0.46363376467027206	0.0	0.7601367835869424	-0.3924360896307959	0.0	0.7782157143255992	-0.33130637176073063	0.0	0.7396162111459528	-0.46176105178440746	0.0	0.7720426772767035	-0.398753691217028	0.0	0.7903844971969334	-0.341233043527629	0.0
102	3.421383647798742	0.7422820489555084	-0.5903035208378778	0.0	0.7414793407776711	-0.5881830324740329	0.0	0.7399295233453373	-0.6928095659998621	0.0	0.7161642198716022	-0.7884498481804209	0.0	0.7447625225023262	-0.8125856288913518	0.0	0.7420658246086612	-0.8138390040819253	0.0	0.7073127508948995	-0.8062778740650928	0.0	0.743493515311424	-0.5874618656708646	0.0	0.7391276613162338	-0.6936062978169109	0.0	0.7162298618464323	-0.7864842403793761	0.0	0.7472081399868946	-0.8116743901742056	0.0	0.7458360903706196	-0.8060721341062862	0.0	0.7049848538406043	-0.7990274398081985	0.0	0.7414298464811414	-0.44669793881845227	0.0	0.754911104019534	-0.3715782936111599	0.0	0.7626142462099735	-0.4102473829153455	0.0	0.7363886251397966	-0.4484932949757558	0.0	0.7603022660050764	-0.37791358147721943	0.0	0.7800395380609986	-0.3184264181860412	0.0	0.7416449803307061	-0.447268312145909	0.0	0.777831307612539	-0.3864427127996543	0.0	0.7999798745562031	-0.331573190967852	0.0
103	3.454926624737945	0.7419625062043893	-0.5739945626097717	0.0	0.7405161970603138	-0.571659091222392	0.0	0.7416812940094928	-0.6762503018065392	0.0	0.7167199836037003	-0.7738621015879785	0.0	0.7484599287304223	-0.7999515445481019	0.0	0.7449788356934316	-0.8004484682994084	0.0	0.7081730702767196	-0.7925014176390476	0.0	0.7442291503478696	-0.5713084694014603	0.0	0.7408408897371286	-0.6770653454573522	0.0	0.7175162380064868	-0.771876013677536	0.0	0.7509649008160423	-0.7983539609069003	0.0	0.7501104882128391	-0.7919868928328093	0.0	0.7069853844312094	-0.784297653549221	0.0	0.7421779947759427	-0.4303503303995832	0.0	0.7575962004614819	-0.35515015007578027	0.0	0.7638706243042669	-0.39387397306373717	0.0	0.7369421350001082	-0.4312769746752814	0.0	0.7608229062182772	-0.3614647097513024	0.0	0.7821351550185753	-0.30344042850314334	0.0	0.7435266652023836	-0.43077644385941055	0.0	0.7829553459653386	-0.37277359775215635	0.0	0.8091894692648066	-0.3202042365567954	0.0
104	3.4884696016771484	0.7417462097608138	-0.5575470703916109	0.0	0.7400059878107969	-0.5551081384393302	0.0	0.7437655368089056	-0.6603725110801669	0.0	0.7181456587249739	-0.7602413317424962	0.0	0.7519165603768355	-0.788161397383032	0.0	0.7477644133208168	-0.7881382167737107	0.0	0.7098175865237644	-0.7795173219374845	0.0	0.744687488444521	-0.5550040298004585	0.0	0.7425991437928561	-0.661109417137756	0.0	0.7193055163446292	-0.7583850547890706	0.0	0.7541195743380325	-0.786012395795271	0.0	0.7532976423387528	-0.7793283266440717	0.0	0.7092954310959766	-0.7706279044855887	0.0	0.7430105531332317	-0.4134802100156769	0.0	0.7599132340409712	-0.3385092251683894	0.0	0.7655791373961275	-0.3772543768109106	0.0	0.7377097593603869	-0.41384692780723986	0.0	0.7620150766331406	-0.34488133221643547	0.0	0.7847834842039559	-0.28783731396862955	0.0	0.7449923596111828	-0.41393193772558207	0.0	0.7865062611775335	-0.3588260823194394	0.0	0.8167488550133492	-0.3078023528433374	0.0
105	3.522012578616352	0.741589469210588	-0.542554860605122	0.0	0.7400246176236724	-0.5400672164654032	0.0	0.7457515477693434	-0.6467058489970678	0.0	0.7204438127258377	-0.7489162636563892	0.0	0.7549843506128049	-0.7784844628955735	0.0	0.7503891695914219	-0.7782534831948693	0.0	0.7122254128407876	-0.7686596491759401	0.0	0.7447416191044937	-0.540075901388823	0.0	0.744029098190935	-0.6473407641160831	0.0	0.7214610939062701	-0.7473041314486453	0.0	0.756588147611712	-0.7759738368312352	0.0	0.75534993661451	-0.7692895038448833	0.0	0.7117110421287293	-0.7593099976316634	0.0	0.7439676084070235	-0.397769688145991	0.0	0.7616397823581874	-0.32319036391849326	0.0	0.7676704037328909	-0.36203930162078035	0.0	0.7389280748177203	-0.39792850191214285	0.0	0.7643517303830534	-0.32992422510480235	0.0	0.7884648411929324	-0.2732446457185801	0.0	0.7457719414178657	-0.3982627359244415	0.0	0.7879496650761255	-0.3454085213689981	0.0	0.8215491640653115	-0.29502959062014056	0.0
106	3.555555555555555	0.7414477326352826	-0.5302020277235524	0.0	0.7405324877860774	-0.5277092299007138	0.0	0.7473535500165202	-0.636183699698858	0.0	0.7234904308834652	-0.7405720906135833	0.0	0.7576197520111122	-0.7715757112712075	0.0	0.75285506345882	-0.7713959234921131	0.0	0.7152718827070371	-0.7606093108528845	0.0	0.7443136619358484	-0.5277174536607551	0.0	0.7449381251504792	-0.6367421161514883	0.0	0.7238134872557791	-0.7392622734447608	0.0	0.7584920942419899	-0.7688670654858812	0.0	0.7565034276886167	-0.7622753585841376	0.0	0.7140755458168359	-0.7509485389603537	0.0	0.7450713970210097	-0.3846128443292146	0.0	0.7628670209158249	-0.3104033772089004	0.0	0.769978846950379	-0.349483747781332	0.0	0.7407717853536592	-0.3848840238498713	0.0	0.7680935557479277	-0.3181850378572922	0.0	0.7934928419885106	-0.26136518296024763	0.0	0.7457020358600328	-0.3850125466403003	0.0	0.7872984003941753	-0.33325037822263986	0.0	0.8230324514213795	-0.28266813547302155	0.0
107	3.5890985324947584	0.7413285893234155	-0.5212244172217233	0.0	0.7413943166557686	-0.5187671711756533	0.0	0.7484720765589509	-0.6291637369596405	0.0	0.7269872645953348	-0.7353384712522405	0.0	0.7598117085014892	-0.7674701426490788	0.0	0.7550884486110406	-0.7674807556127086	0.0	0.7186276449545785	-0.7554526687867648	0.0	0.7434405856164309	-0.5186905992707179	0.0	0.7453575728348023	-0.629649218398335	0.0	0.726185835268712	-0.7342935756589373	0.0	0.7600311662506984	-0.7646823323404184	0.0	0.7570850589697202	-0.7580959253410878	0.0	0.716263451809705	-0.7456137917726577	0.0	0.7463294287549865	-0.3749341060609032	0.0	0.7638026059061308	-0.30095430897080555	0.0	0.7722474885947241	-0.3402812789589487	0.0	0.7432046830084116	-0.37554991731259657	0.0	0.7730823163820295	-0.31066510384936946	0.0	0.7996868970459557	-0.25347563758596725	0.0	0.7449484455099276	-0.3750296004896697	0.0	0.7851609207718387	-0.3231732973931238	0.0	0.8214894135195957	-0.2717199986239805	0.0
